<svg height="511pt" viewBox="0 0 511 511.99992" width="511pt" xmlns="http://www.w3.org/2000/svg"><path d="m288.027344 64.339844c-.210938-.058594-.449219-.113282-.703125-.164063-.097657-.019531-.195313-.039062-.292969-.054687-.085938-.015625-.160156-.03125-.246094-.046875-10.144531-1.609375-20.457031-2.425781-30.65625-2.425781-107.367187 0-194.71875 87.351562-194.71875 194.71875 0 11.265624.988282 22.621093 2.9375 33.75.011719.078124.03125.152343.046875.230468.023438.128906.054688.253906.082031.382813.007813.03125.015626.0625.023438.09375.605469 2.710937 1.964844 5.289062 4.09375 7.386719 2.917969 2.871093 6.714844 4.300781 10.507812 4.300781 3.871094 0 7.746094-1.492188 10.675782-4.472657l205.335937-208.664062c5.804688-5.898438 5.726563-15.378906-.167969-21.183594-1.992187-1.957031-4.390624-3.226562-6.917968-3.851562zm-37.230469 27.363281-159.394531 161.976563c1.414062-87.835938 71.894531-159.179688 159.394531-161.976563zm0 0"/><path d="m243.617188 450.667969c.085937.007812.160156.019531.25.027343 4.183593.261719 8.308593.394532 12.261718.394532 107.367188 0 194.71875-87.351563 194.71875-194.71875 0-3.679688-.105468-7.429688-.316406-11.148438 0 0-.011719.019532-.015625.023438-.195313-3.539063-1.621094-7.023438-4.316406-9.734375-5.835938-5.867188-15.316407-5.894531-21.183594-.0625l-190.773437 189.671875c-5.867188 5.835937-5.894532 15.316406-.0625 21.183594 2.628906 2.644531 5.996093 4.089843 9.4375 4.363281zm39.335937-31.730469 135.585937-134.808594c-11.75 68.960938-66.496093 123.445313-135.585937 134.808594zm0 0"/><path d="m28.402344 349.359375c1.609375 0 3.246094-.261719 4.855468-.8125 7.824219-2.679687 11.996094-11.199219 9.316407-19.023437-8.042969-23.480469-12.121094-48.09375-12.121094-73.15625 0-60.28125 23.476563-116.949219 66.101563-159.574219s99.292968-66.097657 159.574218-66.097657c24.792969 0 49.167969 3.996094 72.449219 11.882813 7.832031 2.652344 16.335937-1.542969 18.992187-9.378906 2.65625-7.835938-1.542968-16.339844-9.378906-18.992188-26.382812-8.9375-53.992187-13.46875-82.0625-13.46875-68.28125 0-132.476562 26.589844-180.757812 74.871094-48.28125 48.285156-74.871094 112.476563-74.871094 180.757813 0 28.375 4.621094 56.253906 13.734375 82.863281 2.128906 6.21875 7.941406 10.128906 14.167969 10.128906zm0 0"/><path d="m502.210938 186.984375c-2.242188-7.960937-10.511719-12.597656-18.476563-10.359375-7.960937 2.242188-12.601563 10.511719-10.359375 18.476562 5.59375 19.875 8.429688 40.488282 8.429688 61.265626 0 60.28125-23.476563 116.953124-66.101563 159.578124-42.621094 42.625-99.292969 66.097657-159.574219 66.097657-19.867187 0-39.585937-2.585938-58.609375-7.6875-7.984375-2.140625-16.203125 2.597656-18.347656 10.585937-2.140625 7.992188 2.597656 16.207032 10.589844 18.347656 21.550781 5.78125 43.882812 8.710938 66.367187 8.710938 68.28125 0 132.476563-26.589844 180.761719-74.871094 48.28125-48.285156 74.871094-112.480468 74.871094-180.761718 0-23.519532-3.214844-46.863282-9.550781-69.382813zm0 0"/><path d="m72.539062 469.8125 10.273438-10.273438c14.324219-14.324218 18.894531-32.179687 1.453125-49.617187l-.519531-.519531c-17.4375-17.4375-34.667969-13.078125-48.367188.625l-21.484375 21.484375c-3.632812 3.632812-3.738281 8.300781-1.144531 10.898437l66.015625 66.015625c3.320313 3.320313 9.027344.933594 13.078125-3.113281 4.046875-4.050781 6.433594-9.757812 3.113281-13.078125zm-12.457031-12.453125-21.902343-21.902344 10.277343-10.277343c5.8125-5.8125 12.664063-6.019532 19.722657 1.039062l1.140624 1.140625c7.058594 7.058594 6.851563 13.910156 1.039063 19.722656zm0 0"/><path d="m134.085938 403.074219 6.851562-6.851563 41.832031 13.390625c3.320313 1.039063 6.121094-.101562 8.199219-2.179687 4.773438-4.773438 5.8125-14.53125 1.765625-18.578125-.519531-.519531-1.351563-1.144531-2.386719-1.351563l-35.601562-10.277344c4.460937-10.066406 3.113281-22.003906-8.511719-33.628906-16.921875-16.917968-33.527344-10.898437-47.75 3.324219l-21.484375 21.484375c-3.011719 3.011719-2.699219 7.265625-.105469 9.859375l66.015625 66.015625c3.320313 3.324219 9.027344.933594 13.078125-3.113281 4.046875-4.050781 6.433594-9.757813 3.113281-13.078125zm-12.453126-12.457031-19.308593-19.304688 10.277343-10.277344c5.8125-5.808594 11.730469-6.953125 18.992188.3125 7.265625 7.265625 6.125 13.183594.3125 18.996094zm0 0"/><path d="m208.613281 378.578125c3.320313 3.324219 9.027344.9375 13.078125-3.109375 4.046875-4.050781 6.4375-9.757812 3.113282-13.082031l-66.015626-66.015625c-3.425781-3.425782-8.925781-.828125-12.972656 3.21875-4.050781 4.050781-6.644531 9.550781-3.21875 12.976562zm0 0"/><path d="m271.304688 327.097656c14.324218-14.324218 18.890624-32.175781 1.039062-50.03125l-27.507812-27.503906c-17.851563-17.855469-35.707032-13.289062-50.03125 1.035156-14.324219 14.324219-18.785157 32.074219-.933594 49.925782l27.507812 27.507812c17.851563 17.855469 35.601563 13.390625 49.925782-.933594zm-61.238282-42.761718c-7.164062-7.164063-6.957031-13.808594-1.144531-19.621094s12.558594-6.125 19.722656 1.039062l27.503907 27.507813c7.164062 7.160156 6.851562 13.90625 1.039062 19.71875s-12.457031 6.019531-19.617188-1.140625zm0 0"/><path d="m262.273438 183.132812-21.488282 21.488282c-3.007812 3.007812-2.699218 7.261718-.105468 9.859375l66.015624 66.011719c3.324219 3.324218 9.03125.9375 13.078126-3.109376 4.050781-4.050781 6.4375-9.757812 3.113281-13.082031l-25.015625-25.015625 6.851562-6.847656 41.832032 13.390625c3.320312 1.035156 6.121093-.105469 8.199218-2.183594 4.773438-4.773437 5.8125-14.53125 1.765625-18.578125-.519531-.519531-1.347656-1.140625-2.386719-1.347656l-35.601562-10.277344c4.460938-10.070312 3.113281-22.003906-8.511719-33.632812-16.917969-16.914063-33.527343-10.894532-47.746093 3.324218zm33.421874 33.421876-10.277343 10.277343-19.304688-19.308593 10.277344-10.273438c5.808594-5.8125 11.726563-6.957031 18.992187.3125 7.265626 7.265625 6.125 13.179688.3125 18.992188zm0 0"/><path d="m385.476562 211.679688c4.050782-4.050782 6.4375-9.757813 3.117188-13.082032l-66.015625-66.011718c-3.425781-3.425782-8.925781-.832032-12.976563 3.21875-4.046874 4.046874-6.640624 9.546874-3.21875 12.972656l66.015626 66.015625c3.324218 3.320312 9.03125.933593 13.078124-3.113281zm0 0"/><path d="m336.378906 123.347656c3.945313 3.945313 9.136719 5.605469 12.25 2.492188l14.324219-14.324219 56.363281 56.359375c3.320313 3.324219 9.027344.9375 13.078125-3.113281 4.046875-4.046875 6.433594-9.753907 3.113281-13.078125l-56.363281-56.359375 14.328125-14.328125c3.113282-3.113282 1.449219-8.300782-2.492187-12.246094-3.425781-3.425781-8.617188-5.707031-12.042969-2.28125l-44.839844 44.839844c-3.425781 3.425781-1.140625 8.613281 2.28125 12.039062zm0 0"/><path d="m398.136719 62.839844 57.089843 14.113281c.519532.105469 1.246094.417969 1.867188 1.039063l26.054688 26.050781c3.320312 3.324219 9.03125.9375 13.078124-3.113281 4.050782-4.046876 6.4375-9.753907 3.113282-13.078126l-26.054688-26.050781c-.621094-.625-.933594-1.351562-1.035156-1.867187l-14.222656-56.988282c-.207032-.621093-.621094-1.039062-.933594-1.347656-3.839844-3.839844-13.183594-.105468-17.644531 4.359375-2.597657 2.59375-2.597657 4.671875-1.660157 7.679688l12.25 41.105469-41.210937-12.144532c-3.113281-.832031-5.085937-.933594-7.679687 1.660156-4.464844 4.464844-8.199219 13.804688-4.359376 17.644532.308594.3125.726563.726562 1.347657.9375zm0 0"/></svg>